<svg id="Layer_1" data-name="Layer 1" xmlns="http://www.w3.org/2000/svg" viewBox="0 0 48 48">
  <defs>
    <style>
      .cls-1 {
        fill: #cfe0f3;
      }

      .cls-2 {
        fill: #0d3b8d;
      }

      .cls-3 {
        fill: #fff;
      }

      .cls-4 {
        fill: #00286f;
      }

      .cls-5 {
        fill: #47caf0;
      }
    </style>
  </defs>
  <rect class="cls-4" x="19" y="34" width="10" height="7" id="id_101" style="fill: rgb(91, 83, 184);"></rect>
  <path class="cls-2" d="m37.333,39H10.667c-2.025,0-3.667,1.642-3.667,3.667h0c0,.736.597,1.333,1.333,1.333h31.333c.736,0,1.333-.597,1.333-1.333h0c0-2.025-1.642-3.667-3.667-3.667Z" id="id_102" style="fill: rgb(105, 98, 234);"></path>
  <rect class="cls-2" x="3" y="4" width="42" height="32" rx="5" ry="5" id="id_103" style="fill: rgb(105, 98, 234);"></rect>
  <circle class="cls-1" cx="24" cy="33" r="1.5" id="id_104"></circle>
  <rect class="cls-5" x="6" y="7" width="36" height="23" rx="2" ry="2" id="id_105" style="fill: rgb(181, 178, 222);"></rect>
  <path class="cls-3" d="m16,24c-.256,0-.512-.098-.707-.293l-5-5c-.391-.391-.391-1.023,0-1.414l5-5c.391-.391,1.023-.391,1.414,0s.391,1.023,0,1.414l-4.293,4.293,4.293,4.293c.391.391.391,1.023,0,1.414-.195.195-.451.293-.707.293Z" id="id_106" style="fill: rgb(255, 255, 255);"></path>
  <path class="cls-3" d="m32,24c-.256,0-.512-.098-.707-.293-.391-.391-.391-1.023,0-1.414l4.293-4.293-4.293-4.293c-.391-.391-.391-1.023,0-1.414s1.023-.391,1.414,0l5,5c.391.391.391,1.023,0,1.414l-5,5c-.195.195-.451.293-.707.293Z" id="id_107" style="fill: rgb(255, 255, 255);"></path>
  <path class="cls-3" d="m20.999,25c-.15,0-.303-.034-.446-.105-.494-.247-.694-.848-.447-1.342l6-12c.248-.495.848-.695,1.342-.447.494.247.694.848.447,1.342l-6,12c-.176.351-.528.553-.896.553Z" id="id_108" style="fill: rgb(255, 255, 255);"></path>
</svg>